<svg height="721" viewBox="0 0 1677 721" width="1677" xmlns="http://www.w3.org/2000/svg"><g transform="translate(1 -2)" stroke="#151617" stroke-width="3" fill="none" fill-rule="evenodd" stroke-linecap="round" stroke-linejoin="round"><path d="M1660.396 536.822l7.53-2.302" opacity=".87"/><path d="M1616.578 29.315l5.269 5.852" opacity=".71"/><path d="M1493.749 479.076l7.864-.412" opacity=".78"/><path d="M1461.48 248.064l-6.82-1.575" opacity=".95"/><path d="M1140.208 520.478l-3.937 6.82" opacity=".94"/><path d="M1170.965 270.492l3.011-4.301" opacity=".83"/><path d="M619.322 498.657l-4.933 1.796" opacity=".73"/><path d="M602.29 257.636l-3.513 3.902" opacity=".77"/><path d="M393.6 368.116l4.863 5.035" opacity=".97"/><path d="M389.365 107.578l6.999-.123" opacity=".8"/><path d="M249.71 467l6.103.534" opacity=".81"/><path d="M88.879 452.496l-7.642-1.905" opacity=".86"/><path d="M1593.09 73.2l-2.781 5.458" opacity=".76"/><path d="M1509.4 11.358l-.959-7.816"/><path d="M681.526 305.673l4.551 4.098" opacity=".94"/><path d="M695.558 74.687l-5.665-5.47" opacity=".9"/><path d="M212.14 32.174l-2.294-5.679" opacity=".93"/><path d="M1343.442 562.51l.092-5.25" opacity=".8"/><path d="M944.748 333.033l-.489-6.983" opacity=".92"/><path d="M720.397 557.409l1.336 6.87" opacity=".79"/><path d="M686.243 262.518l-1.17-6.013" opacity=".89"/><path d="M153.051 400.931l-3.425-5.078"/><path d="M1643.238 191.576l6.87-1.336" opacity=".74"/><path d="M1431.04 160.049l-.183-5.247" opacity=".99"/><path d="M1380.42 96.109l3.16-4.193" opacity=".75"/><path d="M1311.029 564.179l4.452-2.782"/><path d="M1090.21 167.308l2.136 4.796" opacity=".77"/><path d="M950.773 251.487l-5.804-3.915" opacity=".86"/><path d="M700.513 183.926l-5.936-3.71" opacity=".96"/><path d="M161.874 229.811l6.604 4.29" opacity=".95"/><path d="M1255.735 466.227c2.013 2.486 5.622 2.9 8.06.926s5.643-4.246 9.743-1.187" opacity=".93"/><path d="M1252.193 437.99c.223-3.19-2.315-5.967-5.668-6.202s-7.526-.778-8.528-5.817"/><path d="M1251.024 196.922c-2.148 2.75-1.742 6.657.907 8.727s5.79 4.871 3.526 9.964" opacity=".72"/><path d="M1127.259 409.473c-1.53 3.136-.32 6.873 2.701 8.347s6.677 3.561 5.52 9.014" opacity=".7"/><path d="M779.723 500.692c1.53-3.137.32-6.874-2.701-8.348s-6.677-3.561-5.52-9.014" opacity=".72"/><path d="M658.578 423.06c3.337 1.021 6.892-.932 7.94-4.361s2.62-7.634 8.214-7.43" opacity=".84"/><path d="M594.62 104.922c3.019-2.275 3.717-6.441 1.559-9.305s-4.618-6.62-.806-11.297" opacity=".92"/><path d="M225.17 390.409c-2.41 1.022-3.51 3.858-2.46 6.334 1.051 2.475 2.175 5.649-1.136 8.228" opacity=".71"/><path d="M246.24 94.123c.962-3.354-1.053-6.875-4.5-7.863s-7.678-2.487-7.572-8.082" opacity=".86"/><path d="M171.54 192.154c-.988-3.043-4.208-4.723-7.193-3.753-2.984.97-6.79 1.942-9.52-2.383" opacity=".86"/><path d="M113.046 103.936c1.947-3.24.878-7.458-2.388-9.42-3.265-1.963-7.193-4.67-5.488-10.48" opacity=".89"/><path d="M117.535 29.09c1.02-2.09.214-4.582-1.8-5.564s-4.452-2.374-3.68-6.01"/><path d="M1648.967 296.602c-4.813 7.41-3.082 17.076 3.866 21.588s16.481 2.162 21.294-5.25" opacity=".98"/><path d="M1575.209 254.079c9.921 3.416 20.588-1.434 23.825-10.834 3.236-9.4-2.183-19.788-12.105-23.205"/><path d="M1440.08 451.225c-8.831-.308-16.225 6.153-16.514 14.433-.289 8.279 6.636 15.24 15.467 15.549" opacity=".9"/><path d="M1293.762 43.664c-10.888-6.543-24.672-3.595-30.788 6.583s-2.246 23.733 8.642 30.275" opacity=".9"/><path d="M1131.325 503.233c8.212-4.552 11.288-14.703 6.87-22.673-4.418-7.97-14.657-10.741-22.868-6.19" opacity=".87"/><path d="M1162.523 88.761c-6.919 10.653-4.266 24.654 5.924 31.272 10.19 6.617 24.059 3.345 30.977-7.308" opacity=".92"/><path d="M1019.13 517.37c12.608 1.549 24.002-6.75 25.45-18.536s-7.601-22.595-20.209-24.143" opacity=".74"/><path d="M1112.332 380.788c-9.468-5.689-21.524-3.009-26.929 5.986-5.404 8.994-2.11 20.898 7.358 26.587" opacity=".71"/><path d="M1032.36 341.858c-9.39 0-17 7.387-17 16.5s7.61 16.5 17 16.5" opacity=".91"/><path d="M1033.634 267.566c.809-11.57-7.468-21.574-18.487-22.344s-20.607 7.984-21.416 19.553" opacity=".95"/><path d="M770.039 589.24c12.032-1.691 20.477-12.373 18.863-23.858-1.614-11.485-12.677-19.424-24.709-17.733" opacity=".86"/><path d="M858.272 53.554c4.267-7.101 2.16-16.201-4.704-20.326-6.864-4.124-15.887-1.711-20.154 5.39" opacity=".89"/><path d="M514.895 276.731c-4.532-10.676-16.448-15.832-26.616-11.516s-14.736 16.47-10.204 27.145" opacity=".89"/><path d="M393.321 494.712c12.533-4.315 19.34-17.55 15.205-29.56s-17.648-18.25-30.18-13.934" opacity=".85"/><path d="M155.067 356.984c4.942-11.1.564-23.83-9.78-28.436s-22.733.66-27.675 11.76" opacity=".77"/><path d="M1513.296 318.59l-26.913-5.962" opacity=".78"/><path d="M1481.489 188.107l-26.143-8.742" opacity=".91"/><path d="M1527.644 134.19l5.633-24.88" opacity=".86"/><path d="M1405.442 406.696l9.966-18.466" opacity=".7"/><path d="M1346.013 260.398l16.564 16.605" opacity=".71"/><path d="M1307.997 331.666l14.258-11.156" opacity=".95"/><path d="M1134.759 32.618l-6.83-22.438" opacity=".96"/><path d="M927.018 600.824l-6.9-27.965" opacity=".87"/><path d="M916.575 497.27l10.258-22" opacity=".95"/><path d="M884.086 5.973l26.291 8.284"/><path d="M547.97 161.322l15.673 17.449" opacity=".8"/><path d="M523.7 545.005l-16.6-11.44" opacity=".87"/><path d="M426.825 468.432l20.94-1.333" opacity=".79"/><path d="M377.43 565.807l-18.274 17.799" opacity=".71"/><path d="M1636.897 494.097l6.762-1.811 1.812 6.761" opacity=".73"/><path d="M1311.555 275.686l-9.563-2.924 2.632-8.607" opacity=".7"/><path d="M1274.965 128.843l-8.899-6.466 5.878-8.09" opacity=".78"/><path d="M925.304 421.697l-7.25-3.381 2.958-6.344" opacity=".76"/><path d="M830.404 310.693l5.29-7.281 7.281 5.29" opacity=".76"/><path d="M580.263 302.71l7.432-6.691 6.022 6.688" opacity=".99"/><path d="M321.798 184.494l-.559-7.98 7.981-.559"/><path d="M288.254 351.545l-4.086 8.019-7.128-3.632" opacity=".89"/><path d="M1624.122 395.336l-7.762-1.935 1.935-7.763z" opacity=".75"/><path d="M1530.522 549.852l7.502-8.045 8.044 7.502z" opacity=".73"/><path d="M1419.016 310.67l.94-8.95 7.957.836z" opacity=".92"/><path d="M1179.744 295.21l8.345 3.371-2.997 7.418z" opacity=".9"/><path d="M1045.827 568.449l7.795-4.5 4 6.928z" opacity=".95"/><path d="M1057.401 108.903l-2.084 11.817-10.832-1.91z" opacity=".98"/><path d="M931.598 169.695l-2.34 7.65-6.693-2.046z" opacity=".85"/><path d="M850.948 429.509l-8.835-1.717 1.526-7.853z" opacity=".75"/><path d="M774.105 251.909l3.126 7.364-7.364 3.125z" opacity=".73"/><path d="M868.901 156.35l-3.762 10.337-9.397-3.42z" opacity=".89"/><path d="M343.973 341.867l-7.873 9.057-8.301-7.217z" opacity=".7"/><path d="M235.955 256.738l9.998.174-.157 8.999z" opacity=".74"/><path d="M1506.603 380.694l8.363-.585.567 8.106 9.347-.654.689 9.85 9.223-.644" opacity=".91"/><path d="M1398.636 40.992l8.97-.785.748 8.545 10.026-.877.909 10.383 9.893-.866" opacity=".96"/><path d="M610.651 407.98l-1.48-7.62 7.09-1.38-1.656-8.516 8.616-1.675-1.634-8.403" opacity=".83"/><path d="M557.597 41.731l-3.949-6.32 6.125-3.827-4.413-7.064 7.443-4.65-4.355-6.97" opacity=".96"/><path d="M501.375 379.199l8.321-1.022.935 7.617 9.3-1.142 1.137 9.256 9.177-1.127" opacity=".98"/><path d="M429.934 350.363l5.296-6.093 5.792 5.035 5.92-6.81 7.038 6.118 5.841-6.72" opacity=".86"/><path d="M377.695 24.076l-7.995 1.123-1.005-7.152-8.935 1.256-1.222-8.692-8.817 1.24" opacity=".7"/><path d="M113.313 565.073l-8.563-7.185 6.674-7.954-9.57-8.031 8.11-9.665-9.444-7.925" opacity=".88"/><circle cx="1174.923" cy="187.075" opacity=".87" r="4.5" transform="rotate(159 1174.923 187.075)"/><circle cx="902.641" cy="77.73" opacity=".94" r="4.5" transform="rotate(161 902.64 77.73)"/><circle cx="796.567" cy="76.059" opacity=".77" r="4.5" transform="rotate(106 796.567 76.06)"/><circle cx="715.216" cy="489.395" opacity=".88" r="5.5" transform="rotate(100 715.216 489.395)"/><circle cx="555.229" cy="544.72" opacity=".94" r="4.5" transform="rotate(85 555.229 544.72)"/><circle cx="465.762" cy="191.874" opacity=".85" r="5" transform="rotate(-36 465.762 191.874)"/><circle cx="495.596" cy="116.133" opacity=".75" r="6" transform="rotate(151 495.596 116.133)"/><circle cx="500.652" cy="41.87" opacity=".75" r="7" transform="rotate(-69 500.652 41.87)"/><circle cx="346.131" cy="231.06" opacity=".96" r="6" transform="rotate(85 346.131 231.06)"/><circle cx="280.735" cy="561.202" opacity=".94" r="7" transform="rotate(8 280.735 561.202)"/><circle cx="213.902" cy="153.776" opacity=".96" r="5.5" transform="rotate(179 213.902 153.776)"/><path d="M14.604 656.822l-7.53-2.302" opacity=".87"/><path d="M58.422 149.315l-5.269 5.852" opacity=".71"/><path d="M181.251 599.076l-7.864-.412" opacity=".78"/><path d="M213.52 368.064l6.82-1.575" opacity=".95"/><path d="M534.792 640.478l3.937 6.82" opacity=".94"/><path d="M504.035 390.492l-3.011-4.301" opacity=".83"/><path d="M1055.678 618.657l4.933 1.796" opacity=".73"/><path d="M1072.71 377.636l3.513 3.902" opacity=".77"/><path d="M1281.4 488.116l-4.863 5.035" opacity=".97"/><path d="M1285.635 227.578l-6.999-.123" opacity=".8"/><path d="M1425.29 587l-6.103.534" opacity=".81"/><path d="M1586.121 572.496l7.642-1.905" opacity=".86"/><path d="M81.91 193.2l2.781 5.458" opacity=".76"/><path d="M165.6 131.358l.959-7.816"/><path d="M993.474 425.673l-4.551 4.098" opacity=".94"/><path d="M979.442 194.687l5.665-5.47" opacity=".9"/><path d="M1462.86 152.174l2.294-5.679" opacity=".93"/><path d="M331.558 682.51l-.092-5.25" opacity=".8"/><path d="M730.252 453.033l.489-6.983" opacity=".92"/><path d="M954.603 677.409l-1.336 6.87" opacity=".79"/><path d="M988.757 382.518l1.17-6.013" opacity=".89"/><path d="M1521.949 520.931l3.425-5.078"/><path d="M31.762 311.576l-6.87-1.336" opacity=".74"/><path d="M243.96 280.049l.183-5.247" opacity=".99"/><path d="M294.58 216.109l-3.16-4.193" opacity=".75"/><path d="M363.971 684.179l-4.452-2.782"/><path d="M584.79 287.308l-2.136 4.796" opacity=".77"/><path d="M724.227 371.487l5.804-3.915" opacity=".86"/><path d="M974.487 303.926l5.936-3.71" opacity=".96"/><path d="M1513.126 349.811l-6.604 4.29" opacity=".95"/><path d="M419.265 586.227c-2.013 2.486-5.622 2.9-8.06.926s-5.643-4.246-9.743-1.188" opacity=".93"/><path d="M422.807 557.99c-.223-3.19 2.315-5.967 5.668-6.202s7.526-.778 8.528-5.817"/><path d="M423.976 316.922c2.148 2.75 1.742 6.657-.907 8.727s-5.79 4.871-3.526 9.964" opacity=".72"/><path d="M547.741 529.473c1.53 3.136.32 6.873-2.701 8.347s-6.677 3.561-5.52 9.014" opacity=".7"/><path d="M895.277 620.692c-1.53-3.137-.32-6.874 2.701-8.348s6.677-3.561 5.52-9.014" opacity=".72"/><path d="M1016.422 543.06c-3.337 1.021-6.892-.932-7.94-4.361s-2.62-7.634-8.214-7.43" opacity=".84"/><path d="M1080.38 224.922c-3.019-2.275-3.717-6.441-1.558-9.305 2.158-2.864 4.617-6.62.805-11.297" opacity=".92"/><path d="M1449.83 510.409c2.41 1.022 3.51 3.858 2.46 6.334-1.051 2.475-2.175 5.649 1.136 8.228" opacity=".71"/><path d="M1428.76 214.123c-.962-3.354 1.053-6.875 4.5-7.863s7.678-2.487 7.572-8.082" opacity=".86"/><path d="M1503.46 312.154c.988-3.043 4.208-4.723 7.193-3.753 2.984.97 6.79 1.942 9.52-2.383" opacity=".86"/><path d="M1561.954 223.936c-1.947-3.24-.878-7.458 2.388-9.42 3.265-1.963 7.193-4.67 5.488-10.48" opacity=".89"/><path d="M1557.465 149.09c-1.02-2.09-.214-4.582 1.8-5.564s4.452-2.374 3.68-6.01"/><path d="M26.033 416.602c4.813 7.41 3.082 17.076-3.866 21.588S5.686 440.352.873 432.94" opacity=".98"/><path d="M99.791 374.079c-9.921 3.416-20.588-1.434-23.825-10.834-3.236-9.4 2.183-19.788 12.105-23.205"/><path d="M234.92 571.225c8.831-.308 16.225 6.153 16.514 14.433.289 8.279-6.636 15.24-15.467 15.549" opacity=".9"/><path d="M381.238 163.664c10.888-6.543 24.672-3.595 30.788 6.583 6.115 10.178 2.246 23.733-8.642 30.275" opacity=".9"/><path d="M543.675 623.233c-8.212-4.552-11.288-14.703-6.87-22.673 4.418-7.97 14.657-10.741 22.868-6.19" opacity=".87"/><path d="M512.477 208.761c6.919 10.653 4.266 24.654-5.924 31.272-10.19 6.617-24.059 3.345-30.977-7.308" opacity=".92"/><path d="M655.87 637.37c-12.608 1.549-24.002-6.75-25.45-18.536s7.601-22.595 20.209-24.143" opacity=".74"/><path d="M562.668 500.788c9.468-5.689 21.524-3.009 26.929 5.986 5.404 8.994 2.11 20.898-7.358 26.587" opacity=".71"/><path d="M642.64 461.858c9.39 0 17 7.387 17 16.5s-7.61 16.5-17 16.5" opacity=".91"/><path d="M641.366 387.566c-.809-11.57 7.468-21.574 18.487-22.344s20.607 7.984 21.416 19.553" opacity=".95"/><path d="M904.961 709.24c-12.032-1.691-20.477-12.373-18.863-23.858 1.614-11.485 12.677-19.424 24.709-17.733" opacity=".86"/><path d="M816.728 173.554c-4.267-7.101-2.16-16.201 4.704-20.326s15.887-1.711 20.154 5.39" opacity=".89"/><path d="M1160.105 396.731c4.532-10.676 16.448-15.832 26.616-11.516s14.736 16.47 10.204 27.145" opacity=".89"/><path d="M1281.679 614.712c-12.533-4.315-19.34-17.55-15.205-29.56s17.648-18.25 30.18-13.934" opacity=".85"/><path d="M1519.933 476.984c-4.942-11.1-.564-23.83 9.78-28.436s22.733.66 27.675 11.76" opacity=".77"/><path d="M161.704 438.59l26.913-5.962" opacity=".78"/><path d="M193.511 308.107l26.143-8.742" opacity=".91"/><path d="M147.356 254.19l-5.633-24.88" opacity=".86"/><path d="M269.558 526.696l-9.966-18.466" opacity=".7"/><path d="M328.987 380.398l-16.564 16.605" opacity=".71"/><path d="M367.003 451.666l-14.258-11.156" opacity=".95"/><path d="M540.241 152.618l6.83-22.438" opacity=".96"/><path d="M747.982 720.824l6.9-27.965" opacity=".87"/><path d="M758.425 617.27l-10.258-22" opacity=".95"/><path d="M790.914 125.973l-26.291 8.284"/><path d="M1127.03 281.322l-15.673 17.449" opacity=".8"/><path d="M1151.3 665.005l16.6-11.44" opacity=".87"/><path d="M1248.175 588.432l-20.94-1.333" opacity=".79"/><path d="M1297.57 685.807l18.274 17.799" opacity=".71"/><path d="M38.103 614.097l-6.762-1.811-1.812 6.761" opacity=".73"/><path d="M363.445 395.686l9.563-2.924-2.632-8.607" opacity=".7"/><path d="M400.035 248.843l8.899-6.466-5.878-8.09" opacity=".78"/><path d="M749.696 541.697l7.25-3.381-2.958-6.344" opacity=".76"/><path d="M844.596 430.693l-5.29-7.281-7.281 5.29" opacity=".76"/><path d="M1094.737 422.71l-7.432-6.691-6.022 6.688" opacity=".99"/><path d="M1353.202 304.494l.559-7.98-7.981-.559"/><path d="M1386.746 471.545l4.086 8.019 7.128-3.632" opacity=".89"/><path d="M50.878 515.336l7.762-1.935-1.935-7.763z" opacity=".75"/><path d="M144.478 669.852l-7.502-8.045-8.044 7.502z" opacity=".73"/><path d="M255.984 430.67l-.94-8.95-7.957.836z" opacity=".92"/><path d="M495.256 415.21l-8.345 3.371 2.997 7.418z" opacity=".9"/><path d="M629.173 688.449l-7.795-4.5-4 6.928z" opacity=".95"/><path d="M617.599 228.903l2.084 11.817 10.832-1.91z" opacity=".98"/><path d="M743.402 289.695l2.34 7.65 6.693-2.046z" opacity=".85"/><path d="M824.052 549.509l8.835-1.717-1.526-7.853z" opacity=".75"/><path d="M900.895 371.909l-3.126 7.364 7.364 3.125z" opacity=".73"/><path d="M806.099 276.35l3.762 10.337 9.397-3.42z" opacity=".89"/><path d="M1331.027 461.867l7.873 9.057 8.301-7.217z" opacity=".7"/><path d="M1439.045 376.738l-9.998.174.157 8.999z" opacity=".74"/><path d="M168.397 500.694l-8.363-.585-.567 8.106-9.347-.654-.689 9.85-9.223-.644" opacity=".91"/><path d="M276.364 160.992l-8.97-.785-.748 8.545-10.026-.877-.909 10.383-9.893-.866" opacity=".96"/><path d="M1064.349 527.98l1.48-7.62-7.09-1.38 1.656-8.516-8.616-1.675 1.634-8.403" opacity=".83"/><path d="M1117.403 161.731l3.949-6.32-6.125-3.827 4.413-7.064-7.443-4.65 4.355-6.97" opacity=".96"/><path d="M1173.625 499.199l-8.321-1.022-.935 7.617-9.3-1.142-1.137 9.256-9.177-1.127" opacity=".98"/><path d="M1245.066 470.363l-5.296-6.093-5.792 5.035-5.92-6.81-7.038 6.118-5.841-6.72" opacity=".86"/><path d="M1297.305 144.076l7.995 1.123 1.005-7.152 8.935 1.256 1.222-8.692 8.817 1.24" opacity=".7"/><path d="M1561.687 685.073l8.563-7.185-6.674-7.954 9.57-8.031-8.11-9.665 9.444-7.925" opacity=".88"/><circle cx="500.077" cy="307.075" opacity=".87" r="4.5" transform="scale(1 -1) rotate(-21 -1156.752 0)"/><circle cx="772.359" cy="197.73" opacity=".94" r="4.5" transform="scale(1 -1) rotate(-19 -409.228 0)"/><circle cx="878.433" cy="196.059" opacity=".77" r="4.5" transform="scale(1 -1) rotate(-74 618.253 0)"/><circle cx="959.784" cy="609.395" opacity=".88" r="5.5" transform="scale(1 -1) rotate(-80 233.535 0)"/><circle cx="1119.771" cy="664.72" opacity=".94" r="4.5" transform="scale(-1 1) rotate(85 0 -557.296)"/><circle cx="1209.238" cy="311.874" opacity=".85" r="5" transform="scale(-1 1) rotate(-36 0 4033.527)"/><circle cx="1179.404" cy="236.133" opacity=".75" r="6" transform="scale(1 -1) rotate(-29 266.347 0)"/><circle cx="1174.348" cy="161.87" opacity=".75" r="7" transform="scale(-1 1) rotate(-69 0 1870.556)"/><circle cx="1328.869" cy="351.06" opacity=".96" r="6" transform="scale(-1 1) rotate(85 0 -1099.146)"/><circle cx="1394.265" cy="681.202" opacity=".94" r="7" transform="scale(-1 1) rotate(8 0 -19257.721)"/><circle cx="1461.098" cy="273.776" opacity=".96" r="5.5" transform="scale(1 -1) rotate(-1 -29910.522 0)"/></g></svg>